<?xml version="1.0" encoding="UTF-8" standalone="no"?>
<!-- Created with Inkscape (http://www.inkscape.org/) -->

<svg
   xmlns:dc="http://purl.org/dc/elements/1.1/"
   xmlns:cc="http://creativecommons.org/ns#"
   xmlns:rdf="http://www.w3.org/1999/02/22-rdf-syntax-ns#"
   xmlns:svg="http://www.w3.org/2000/svg"
   xmlns="http://www.w3.org/2000/svg"
   xmlns:sodipodi="http://sodipodi.sourceforge.net/DTD/sodipodi-0.dtd"
   xmlns:inkscape="http://www.inkscape.org/namespaces/inkscape"
   version="1.1"
   width="99.901001"
   height="83.741997"
   viewBox="0 0 99.901001 83.741997"
   id="Слой_1"
   xml:space="preserve"
   inkscape:version="0.48.3.1 r9886"
   sodipodi:docname="roadmap.svg"><sodipodi:namedview
   pagecolor="#ffffff"
   bordercolor="#666666"
   borderopacity="1"
   objecttolerance="10"
   gridtolerance="10"
   guidetolerance="10"
   inkscape:pageopacity="0"
   inkscape:pageshadow="2"
   inkscape:window-width="640"
   inkscape:window-height="480"
   id="namedview7"
   showgrid="false"
   fit-margin-top="0"
   fit-margin-left="0"
   fit-margin-right="0"
   fit-margin-bottom="0"
   inkscape:zoom="2.36"
   inkscape:cx="49.901"
   inkscape:cy="49"
   inkscape:window-x="65"
   inkscape:window-y="24"
   inkscape:window-maximized="0"
   inkscape:current-layer="Слой_1" /><metadata
   id="metadata11"><rdf:RDF><cc:Work
       rdf:about=""><dc:format>image/svg+xml</dc:format><dc:type
         rdf:resource="http://purl.org/dc/dcmitype/StillImage" /><dc:title /></cc:Work></rdf:RDF></metadata><defs
   id="defs9" />
<g
   id="g3"
   transform="translate(-0.099,-15.258)">
	<path
   d="m 93.473,19.808 -0.121,-2.229 1.252,-0.06 C 97.301,17.374 99,17.294 100,17.266 v -2.008 c 0,0 -87.968,3.084 -87.968,18.785 0,15.699 33.588,33.737 33.433,42.737 C 45.249,89.027 11.313,95 0.099,99 h 44.515 c 1.339,-1 2.815,-1.641 4.516,-2.619 l 0.966,-0.463 1.113,1.98 -0.968,0.396 C 49.727,98.589 49.239,99 48.765,99 h 31.332 c 0,0 15.591,-8.984 15.233,-22.398 C 94.882,59.891 40.139,42.893 40.377,34.178 40.629,25.006 100,21.984 100,21.984 V 19.5 c -1,0.032 -2.707,0.109 -5.276,0.248 l -1.251,0.06 z m -64.485,22.428 -0.646,-0.91 c -2.03,-2.86 -3.017,-5.472 -3.017,-7.985 0,-1.406 0.7,-2.729 2.082,-3.934 l 0.841,-0.734 1.467,1.682 -0.841,0.733 c -0.874,0.762 -1.316,1.52 -1.316,2.252 0,2.006 0.876,4.258 2.605,6.694 l 0.646,0.91 -1.821,1.292 z m 38.408,45.788 c -2.809,2.599 -6.474,4.67 -9.985,6.57 l -0.982,0.53 -1.061,-1.964 0.981,-0.53 c 3.388,-1.831 6.913,-3.822 9.532,-6.245 l 0.818,-0.758 1.516,1.638 -0.819,0.759 z m -0.757,-19.108 0.845,0.729 c 3.519,3.043 5.088,5.313 5.088,7.36 -0.022,1.326 -0.192,2.546 -0.503,3.689 l -0.292,1.077 -2.154,-0.586 0.293,-1.077 c 0.262,-0.965 0.404,-2 0.423,-3.077 0.001,-0.911 -0.748,-2.613 -4.314,-5.698 l -0.844,-0.729 1.458,-1.688 z m -16.323,-11.654 3.842,2.643 c 2.381,1.631 4.629,3.173 6.736,4.675 l 0.908,0.648 -1.297,1.817 -0.908,-0.647 c -2.09,-1.491 -4.33,-3.026 -6.701,-4.652 L 49.05,59.1 50.316,57.262 z m -5.759,-4.087 0.901,0.66 -1.318,1.801 -0.901,-0.658 C 39.458,52.213 36.44,49.784 34.012,47.552 l -0.822,-0.755 1.511,-1.644 0.821,0.755 c 2.366,2.175 5.321,4.552 9.035,7.267 z m 2.456,-28.31 c -4.467,0.867 -8.243,1.812 -11.223,2.809 l -1.059,0.354 -0.708,-2.116 1.059,-0.354 c 3.072,-1.028 6.943,-1.998 11.506,-2.884 l 1.095,-0.212 0.425,2.191 -1.095,0.212 z m 19.624,-2.866 c -4.145,0.461 -8.042,0.964 -11.582,1.495 l -1.104,0.166 -0.332,-2.207 1.104,-0.166 c 3.567,-0.536 7.493,-1.042 11.667,-1.506 l 1.109,-0.124 0.246,2.219 -1.108,0.123 z m 19.804,-1.751 c -4,0.276 -7.924,0.588 -11.664,0.93 l -1.111,0.102 -0.202,-2.223 1.111,-0.102 c 3.756,-0.343 7.696,-0.657 11.713,-0.934 l 1.112,-0.077 0.154,2.227 -1.113,0.077 z"
   id="path5"
   inkscape:connector-curvature="0" />
</g>
</svg>